<?xml version="1.0" encoding="utf-8"?>
<!-- Generator: Adobe Illustrator 15.0.0, SVG Export Plug-In . SVG Version: 6.00 Build 0)  -->
<!DOCTYPE svg PUBLIC "-//W3C//DTD SVG 1.1//EN" "http://www.w3.org/Graphics/SVG/1.1/DTD/svg11.dtd">
<svg version="1.1" xmlns="http://www.w3.org/2000/svg" xmlns:xlink="http://www.w3.org/1999/xlink" x="0px" y="0px" width="299px"
	 height="356px" viewBox="0 0 299 356" enable-background="new 0 0 299 356" xml:space="preserve">
<g id="Layer_2" display="none">
	<rect x="-123" y="-87.5" display="inline" width="596" height="531"/>
</g>
<g id="Layer_1">
	<g id="layer1">
		<path id="path16479" fill="#FFFFFF" d="M143.68,350.424c-0.97-1.124-1.459-4.527-1.583-11.02l-0.178-9.395l-4.034-1.738
			c-8.964-3.865-12.689-9.813-12.894-20.582c-0.108-5.656,0.291-7.442,2.373-10.637c2.677-4.104,2.679-4.094-2.084-9.123
			c-6.595-6.966-8.469-24.17-3.26-29.931c1.091-1.206,1.975-2.647,1.965-3.204c-0.011-0.556-2.142-3.637-4.736-6.847
			c-8.054-9.968-9.06-12.48-9.304-23.252c-0.197-8.677,0.025-9.937,2.569-14.552c1.531-2.779,4.071-6.474,5.643-8.207l2.858-3.151
			l-3.746-4.313c-2.061-2.373-4.952-6.775-6.425-9.783c-2.37-4.84-2.709-6.783-2.957-16.963c-0.243-9.97,0.015-12.184,1.944-16.672
			c1.224-2.847,3.518-6.463,5.098-8.036c2.785-2.772,3.751-5.503,1.934-5.468c-0.489,0.009-3.414-2.375-6.501-5.299
			c-8.562-8.112-13.178-22.332-9.905-30.512l1.458-3.646l-3.764-2.938c-3.693-2.883-5.757-5.984-8.832-13.275l-1.542-3.654
			l-5.037,1.717c-4.827,1.645-5.261,1.633-10.337-0.289c-3.32-1.258-7.403-1.944-10.935-1.838
			c-3.963,0.119-7.083-0.497-10.507-2.074c-2.678-1.235-6.871-2.324-9.316-2.422c-2.979-0.118-6.314-1.276-10.103-3.505
			c-4.038-2.376-6.873-3.319-9.907-3.295c-4.802,0.039-12.681-3.61-16.857-7.806l-2.653-2.665l5.536-1.35
			c6.745-1.645,24.595-11.006,36.638-19.215c4.887-3.331,15.106-10.322,22.708-15.536C83.968,8.316,85.249,7.627,93.041,5.94
			c18.041-3.907,32.475,4.14,35.088,19.563c1.008,5.944-0.566,11.199-4.839,16.16c-1.808,2.099-3.28,4.225-3.27,4.724
			c0.009,0.5,1.477,2.09,3.262,3.535c2.623,2.124,3.912,2.506,6.72,1.995c5.265-0.957,6.058-2.385,5.986-10.777
			c-0.048-5.656-0.586-8.483-2.215-11.633c-4.459-8.626-2.175-17.946,5.416-22.101c10.278-5.626,21.579-0.425,23.034,10.601
			c0.406,3.085-0.102,5.641-1.981,9.968c-2.224,5.114-2.476,6.878-2.076,14.542l0.455,8.723l4.703,0.213
			c4.323,0.196,10.766-2.017,10.733-3.689c-0.008-0.346-1.096-2.001-2.42-3.679c-5.904-7.481-6.634-19.79-1.631-27.554
			c6.208-9.635,14.773-12.904,27.54-10.511c11.72,2.197,16.667,5.026,45.394,25.961c6.877,5.011,18.416,12.357,25.645,16.323
			c12.505,6.862,13.395,7.187,18.381,6.721c4.82-0.451,5.245-0.317,5.283,1.662c0.057,2.934-6.167,10.265-10.827,12.755
			c-2.098,1.121-5.577,2.072-7.731,2.113c-2.155,0.041-6.455,1.295-9.557,2.786c-4.588,2.207-6.475,2.602-10.148,2.122
			c-3.201-0.418-5.146-0.158-6.689,0.897c-2.473,1.689-8.559,3.01-16.596,3.602c-16.545,1.219-22.092,1.791-22.985,2.366
			c-0.546,0.352-1.594,2.16-2.329,4.019c-1.482,3.749-5.463,8.369-9.607,11.153c-2.495,1.675-2.707,2.342-2.596,8.179
			c0.17,8.934-2.959,15.866-11.137,24.665l-6.516,7.011l4.217,4.847c6.277,7.214,8.314,12.196,8.503,20.802
			c0.296,13.435-2.864,21.068-12.14,29.305l-4.664,4.146l3.133,3.228c7.41,7.629,8.07,9.246,8.214,20.131
			c0.161,12.299-1.396,16.008-9.965,23.752c-5.489,4.961-7.362,8.084-4.819,8.035c0.58-0.012,2.254,2.545,3.717,5.68
			c4.617,9.887,2.797,20.291-5.201,29.732c-2.096,2.477-3.808,4.75-3.801,5.055c0.004,0.304,1.166,2.188,2.58,4.188
			c2.079,2.941,2.592,4.855,2.69,10.044c0.215,11.272-6.64,20.44-15.411,20.606l-2.898,0.057l-0.468,11.223
			c-0.429,10.299-1.094,12.737-3.504,12.844C145.366,352.04,144.452,351.32,143.68,350.424z M146.314,324.464
			c-0.278-14.601-0.784-22.43-1.448-22.417c-0.669,0.014-0.824,7.941-0.449,23.001c0.326,13.06,0.951,22.738,1.448,22.418
			C146.347,347.154,146.549,336.805,146.314,324.464z M141.635,312.684c-0.288-8.834-1.64-10.586-4.185-5.427
			c-1.823,3.696-1.129,10.404,1.592,15.392l1.628,2.982l0.612-2.512C141.619,321.736,141.778,317.041,141.635,312.684z
			 M153.232,321.957c1.371-2.684,1.07-12.417-0.428-13.859c-2.279-2.193-2.677-1.166-2.839,7.357c-0.118,6.186,0.171,8.5,1.054,8.48
			C151.688,323.922,152.684,323.032,153.232,321.957z M147.536,277.742c0.058-8.248-0.973-11.734-3.456-11.688
			c-1.351,0.025-0.804,13.437,0.604,14.793C146.803,282.887,147.505,282.122,147.536,277.742z M140.974,268.365
			c-0.43-1.659-0.487-1.658-1.18,0.021c-0.401,0.972-0.371,2.546,0.066,3.5c0.757,1.652,0.814,1.651,1.18-0.021
			C141.252,270.898,141.222,269.323,140.974,268.365z M148.508,228.964c0.049-13.522-0.014-13.815-3.305-15.438l-3.029-1.493
			l0.2,10.483c0.181,9.506,0.408,10.672,2.432,12.487c1.229,1.101,2.558,1.656,2.956,1.231
			C148.159,235.813,148.495,232.54,148.508,228.964z M154.816,225.664c0.094-5.467-1.94-4.793-2.178,0.721
			c-0.164,3.865,0.053,4.731,0.952,3.803C154.234,229.527,154.784,227.491,154.816,225.664z M139.543,219.951
			c-1.478-1.422-2.534,2.699-1.547,6.035c0.774,2.615,0.805,2.593,1.687-1.188C140.281,222.236,140.234,220.617,139.543,219.951z
			 M149.825,168.758c0.473-13.054,0.454-13.199-1.907-14.95c-3.092-2.293-5.925-3.152-6.817-2.066
			c-0.39,0.475-0.336,6.836,0.12,14.137c0.802,12.861,0.907,13.314,3.354,14.59C149.202,182.883,149.322,182.615,149.825,168.758z
			 M157.906,173.473c2.541-4.042,2.656-7.942,0.343-11.505c-1.165-1.793-2.556-2.978-3.09-2.633
			c-1.271,0.82-0.979,16.512,0.306,16.488C156.002,175.812,157.102,174.755,157.906,173.473z M138.292,165.647
			c-0.146-7.675-0.462-9.493-1.646-9.47c-1.707,0.032-2.979,2.266-3.857,6.775c-0.439,2.252,0.002,4.563,1.473,7.724
			C137.492,177.618,138.495,176.365,138.292,165.647z M150.637,123.655c0.346-3.652,0.586-10.624,1.178-34.279
			c0.359-14.309,0.816-26.556,1.018-27.216c0.201-0.659,0.343-6.513,0.316-13.008l-0.047-11.81l-6.864-0.558
			c-3.774-0.308-6.999-0.418-7.166-0.245c-0.166,0.174-0.152,19.247,0.031,42.386c0.263,33.016,0.607,42.241,1.602,42.858
			c1.659,1.029,6.968,2.907,8.562,3.029C149.955,124.864,150.572,124.344,150.637,123.655z"/>
	</g>
</g>
</svg>
