<?xml version="1.0" encoding="utf-8"?>
<!-- Generator: Adobe Illustrator 15.0.0, SVG Export Plug-In . SVG Version: 6.00 Build 0)  -->
<!DOCTYPE svg PUBLIC "-//W3C//DTD SVG 1.1//EN" "http://www.w3.org/Graphics/SVG/1.1/DTD/svg11.dtd">
<svg version="1.1" id="Layer_1" xmlns="http://www.w3.org/2000/svg" xmlns:xlink="http://www.w3.org/1999/xlink" x="0px" y="0px"
	 width="35.063px" height="35.063px" viewBox="0 0 35.063 35.063" enable-background="new 0 0 35.063 35.063" xml:space="preserve">
<g>
	<path fill="#FFFFFF" d="M13.83,35.063c-3.01,0-6.039-0.975-8.578-2.982c-5.989-4.736-7.008-13.463-2.271-19.454
		c4.455-5.633,12.438-6.868,18.353-3.059L28.854,3.3h-4.442V0h10.65v10.65h-3.301V5.633l-7.027,7.028
		c3.974,5.057,3.965,12.102-0.028,17.149C21.977,33.262,17.922,35.063,13.83,35.063z M13.864,10.667
		c-0.413,0-0.828,0.024-1.243,0.073c-2.799,0.327-5.303,1.724-7.052,3.934C1.96,19.237,2.736,25.885,7.298,29.492
		c4.564,3.609,11.212,2.834,14.82-1.729c3.029-3.83,3.048-9.169,0.057-13.017l-1.859-1.86
		C18.448,11.436,16.197,10.667,13.864,10.667z"/>
</g>
</svg>
