<?xml version="1.0" encoding="utf-8"?>
<!-- Generator: Adobe Illustrator 15.0.0, SVG Export Plug-In . SVG Version: 6.00 Build 0)  -->
<!DOCTYPE svg PUBLIC "-//W3C//DTD SVG 1.1//EN" "http://www.w3.org/Graphics/SVG/1.1/DTD/svg11.dtd">
<svg version="1.1" id="Layer_1" xmlns="http://www.w3.org/2000/svg" xmlns:xlink="http://www.w3.org/1999/xlink" x="0px" y="0px"
	 width="41.6px" height="61.9px" viewBox="0 0 41.6 61.9" enable-background="new 0 0 41.6 61.9" xml:space="preserve">
<g>
	<path fill="#FFFFFF" d="M23.25,61.9h-5V54.63h-7v-5h7v-8.186C7.956,40.181-0.028,31.369,0,20.743
		C0.015,15.187,2.193,9.97,6.132,6.052C10.058,2.148,15.264,0,20.798,0c0.02,0,0.04,0,0.059,0
		C32.326,0.032,41.631,9.388,41.6,20.857c-0.028,10.598-8.063,19.381-18.35,20.599v8.174h7v5h-7V61.9z M20.798,5
		c-4.204,0-8.158,1.631-11.14,4.597C6.666,12.573,5.012,16.537,5,20.757C4.977,29.469,12.045,36.576,20.757,36.6l0.086,0v0
		c8.665-0.023,15.733-7.092,15.756-15.756C36.623,12.131,29.555,5.024,20.843,5C20.829,5,20.813,5,20.798,5z"/>
</g>
</svg>
